<svg width="175" height="36" viewBox="0 0 175 36" xmlns="http://www.w3.org/2000/svg" xmlns:xlink="http://www.w3.org/1999/xlink">
    <defs>
        <linearGradient x1="17.55%" y1="90.37%" x2="165.713%" y2="-61.976%" id="c9k7acrn3a">
            <stop stop-color="#F9EE0E" offset="0%"/>
            <stop stop-color="#F9EE0E" stop-opacity="0" offset="100%"/>
        </linearGradient>
        <linearGradient x1="17.553%" y1="90.37%" x2="165.701%" y2="-61.976%" id="bqfwoq5twb">
            <stop stop-color="#F9EE0E" offset="0%"/>
            <stop stop-color="#F9EE0E" stop-opacity="0" offset="100%"/>
        </linearGradient>
        <linearGradient x1="-92.625%" y1="203.169%" x2="84.783%" y2="15.106%" id="zuttqqhvqc">
            <stop stop-color="#F9EE0E" offset="0%"/>
            <stop stop-color="#F9EE0E" stop-opacity="0" offset="100%"/>
        </linearGradient>
        <linearGradient x1="92.043%" y1="10.825%" x2="-59.775%" y2="162.352%" id="0zg6nev7od">
            <stop stop-color="#105DFF" offset="0%"/>
            <stop stop-color="#105DFF" stop-opacity="0" offset="100%"/>
        </linearGradient>
        <linearGradient x1="199.593%" y1="-93.212%" x2="6.941%" y2="91.367%" id="dtdz7gfm5f">
            <stop stop-color="#105DFF" offset="0%"/>
            <stop stop-color="#105DFF" stop-opacity="0" offset="100%"/>
        </linearGradient>
        <linearGradient x1="199.589%" y1="-93.212%" x2="6.942%" y2="91.367%" id="v3sgqj96dh">
            <stop stop-color="#105DFF" stop-opacity="0" offset="0%"/>
            <stop stop-color="#105DFF" offset="100%"/>
        </linearGradient>
        <linearGradient x1="-92.625%" y1="203.173%" x2="84.783%" y2="15.105%" id="8ioz2kthei">
            <stop stop-color="#F9EE0E" offset="0%"/>
            <stop stop-color="#F9EE0E" stop-opacity="0" offset="100%"/>
        </linearGradient>
        <path id="nq84wr8xae" d="M0 0h4.088v4.088H0z"/>
    </defs>
    <g fill="none" fill-rule="evenodd">
        <g fill-rule="nonzero">
            <path d="M55.282 13.693c.051-1.252 1.175-1.66 2.427-1.66 1.788 0 4.087.944 4.956 1.302l1.303-3.04C60.953 8.89 58.475 8.66 57.454 8.66c-3.373 0-5.8 1.942-5.8 5.212 0 3.883 3.628 4.751 6.336 5.594 1.737.537 3.066 1.226 2.861 2.504-.179 1.047-1.303 1.711-2.861 1.711-1.737 0-3.449-.638-5.16-1.456l-1.584 2.99c2.197 1.174 4.24 1.813 6.923 1.813 3.73 0 6.335-2.223 6.514-5.135.23-3.832-3.32-4.956-6.105-5.901-1.763-.613-3.245-1.099-3.296-2.3zM68.26 26.824h4.036l1.737-4.216h5.416l1.763 4.216h4.01L76.87 8.71h-.256L68.26 26.824zm8.48-10.704 1.457 3.5h-2.912l1.456-3.5zM90.69 26.824h3.652V12.262h4.88v-3.32H85.86v3.32h4.828z" fill="#FBF459"/>
            <path d="M107.83 20.616h3.526c2.963 0 6.055-2.35 6.055-5.876 0-2.376-1.482-5.799-6.387-5.799h-6.82v17.883h3.627v-6.208zm3.424-3.347h-3.423v-5.032h3.32c2.172 0 2.632 1.635 2.632 2.503 0 .792-.46 2.478-2.53 2.53zM130.643 8.635c-6.82 0-8.89 5.492-8.89 9.222 0 3.832 2.07 9.248 8.89 9.248 6.77 0 8.84-5.416 8.84-9.248 0-3.73-2.07-9.222-8.84-9.222zm0 15.123c-4.572 0-5.21-4.445-5.21-5.901 0-1.456.638-5.85 5.21-5.85 4.497 0 5.16 4.394 5.16 5.85 0 1.456-.663 5.901-5.16 5.901zM148.424 20.616h2.401l2.912 6.208h3.934l-3.193-6.77c2.018-.869 3.526-2.734 3.526-5.314 0-2.376-1.482-5.799-6.387-5.799h-6.77v17.883h3.577v-6.208zm3.423-3.347h-3.423v-5.032h3.32c2.172 0 2.632 1.635 2.632 2.503 0 .792-.46 2.478-2.53 2.53zM166.28 26.824h3.654V12.262h4.879v-3.32h-13.36v3.32h4.828z" fill="#FFF"/>
        </g>
        <path d="M14.767 10.38a3.321 3.321 0 1 1-2.93-2.721l.166.022c.19.03.385.048.583.048a3.323 3.323 0 0 0 3.268-3.903l.038.19-.034-.19A3.318 3.318 0 0 1 19.138 0a3.318 3.318 0 0 1 3.32 3.32 3.318 3.318 0 0 1-3.901 3.27 3.558 3.558 0 0 0-.506-.036 3.318 3.318 0 0 0-3.28 3.826 3.32 3.32 0 0 0-.822-1.66 3.31 3.31 0 0 1 .818 1.66z" fill="#105DFF"/>
        <path d="M16.587 20.936a3.321 3.321 0 1 1-2.814-3.28c.19.03.383.046.582.046a3.318 3.318 0 0 0 3.268-3.9 3.908 3.908 0 0 1-.035-.507 3.318 3.318 0 0 1 3.32-3.32 3.318 3.318 0 0 1 3.32 3.32 3.318 3.318 0 0 1-3.905 3.27 3.318 3.318 0 0 0-3.786 3.786c.034.189.05.386.05.585z" fill="#F9EE0E"/>
        <path d="M26.51 22.122a3.321 3.321 0 1 1-2.764-2.699 3.323 3.323 0 0 0 3.851-3.855 3.575 3.575 0 0 1-.036-.505 3.318 3.318 0 0 1 3.32-3.32 3.318 3.318 0 0 1 3.32 3.32 3.318 3.318 0 0 1-3.902 3.27l-.188-.04c.062.016.125.029.189.04a3.566 3.566 0 0 0-.506-.036 3.318 3.318 0 0 0-3.28 3.825 3.316 3.316 0 0 0-.701-1.52l.112.147c.291.4.495.866.584 1.373z" fill="#105DFF"/>
        <path d="M28.28 32.096a3.321 3.321 0 1 1-2.764-2.699 3.323 3.323 0 0 0 3.851-3.855 3.536 3.536 0 0 1-.037-.505 3.318 3.318 0 0 1 3.32-3.32 3.318 3.318 0 0 1 3.32 3.32 3.318 3.318 0 0 1-3.901 3.27 3.554 3.554 0 0 0-.506-.037 3.319 3.319 0 0 0-3.28 3.826 3.324 3.324 0 0 0-1.229-2.035l.142.117a3.31 3.31 0 0 1 1.083 1.918z" fill="#F9EE0E"/>
        <path d="M27.849 6.353a2.555 2.555 0 1 0-3.613 3.613 2.555 2.555 0 0 0 3.613-3.613" fill="url(#c9k7acrn3a)"/>
        <path d="M39.592 18.096a2.555 2.555 0 1 0-3.613 3.613 2.555 2.555 0 0 0 3.613-3.613" fill="url(#bqfwoq5twb)"/>
        <path d="M29.004 5.198a2.044 2.044 0 1 0 2.89-2.89 2.044 2.044 0 0 0-2.89 2.89" fill="url(#zuttqqhvqc)"/>
        <path d="M8.257 14.202a2.555 2.555 0 1 0-3.613 3.613 2.555 2.555 0 0 0 3.613-3.613" fill="url(#0zg6nev7od)"/>
        <g transform="translate(0 18.371)">
            <mask id="7mx79bwp8g" fill="#fff">
                <use xlink:href="#nq84wr8xae"/>
            </mask>
            <path d="M3.489.599a2.043 2.043 0 1 0-2.89 2.888A2.043 2.043 0 0 0 3.489.6" fill="url(#dtdz7gfm5f)" mask="url(#7mx79bwp8g)"/>
        </g>
        <path d="M20 25.945a2.555 2.555 0 1 0-3.613 3.613A2.555 2.555 0 0 0 20 25.945" fill="url(#0zg6nev7od)"/>
        <path d="M15.232 30.713a2.044 2.044 0 1 0-2.89 2.89 2.044 2.044 0 0 0 2.89-2.89" fill="url(#v3sgqj96dh)"/>
        <path d="M40.747 16.94a2.044 2.044 0 1 0 2.89-2.89 2.044 2.044 0 0 0-2.89 2.89" fill="url(#8ioz2kthei)"/>
    </g>
</svg>
