<?xml version="1.0" encoding="UTF-8"?>
<svg width="100px" height="100px" viewBox="0 0 100 100" version="1.1" xmlns="http://www.w3.org/2000/svg" xmlns:xlink="http://www.w3.org/1999/xlink">
    <title>icon_github</title>
    <defs>
        <rect id="path-1" x="0" y="0" width="100" height="100" rx="50"></rect>
        <filter x="0.0%" y="0.0%" width="100.0%" height="100.0%" filterUnits="objectBoundingBox" id="filter-3">
            <feGaussianBlur stdDeviation="0" in="SourceGraphic"></feGaussianBlur>
        </filter>
        <filter x="-40.1%" y="-40.0%" width="180.2%" height="180.0%" filterUnits="objectBoundingBox" id="filter-4">
            <feGaussianBlur stdDeviation="15" in="SourceGraphic"></feGaussianBlur>
        </filter>
        <filter x="-28.5%" y="-28.4%" width="156.9%" height="156.8%" filterUnits="objectBoundingBox" id="filter-5">
            <feGaussianBlur stdDeviation="10" in="SourceGraphic"></feGaussianBlur>
        </filter>
        <filter x="-49.1%" y="-48.9%" width="198.1%" height="197.9%" filterUnits="objectBoundingBox" id="filter-6">
            <feGaussianBlur stdDeviation="13" in="SourceGraphic"></feGaussianBlur>
        </filter>
        <filter x="-44.9%" y="-44.8%" width="189.7%" height="189.5%" filterUnits="objectBoundingBox" id="filter-7">
            <feGaussianBlur stdDeviation="10" in="SourceGraphic"></feGaussianBlur>
        </filter>
        <filter x="-198.6%" y="-198.1%" width="497.2%" height="496.1%" filterUnits="objectBoundingBox" id="filter-8">
            <feGaussianBlur stdDeviation="34" in="SourceGraphic"></feGaussianBlur>
        </filter>
    </defs>
    <g id="页面-2" stroke="none" stroke-width="1" fill="none" fill-rule="evenodd">
        <g id="官网首页2" transform="translate(-766.000000, -5375.000000)">
            <g id="icon_github" transform="translate(766.000000, 5375.000000)">
                <g id="asset-16备份">
                    <mask id="mask-2" fill="white">
                        <use xlink:href="#path-1"></use>
                    </mask>
                    <use id="矩形" fill="#0A0718" fill-rule="nonzero" xlink:href="#path-1"></use>
                    <g id="编组" mask="url(#mask-2)" fill-rule="nonzero">
                        <g transform="translate(-16.470588, -18.823529)" id="椭圆形">
                            <ellipse fill="#EBF7FD" filter="url(#filter-3)" transform="translate(66.850691, 68.259362) scale(-1, 1) rotate(-180.000000) translate(-66.850691, -68.259362) " cx="66.8506915" cy="68.2593624" rx="66.8506915" ry="67.0347552"></ellipse>
                            <ellipse fill="#FBF459" filter="url(#filter-4)" transform="translate(76.327172, 58.533061) scale(-1, 1) rotate(-180.000000) translate(-76.327172, -58.533061) " cx="76.3271715" cy="58.5330608" rx="56.075367" ry="56.2297625"></ellipse>
                            <ellipse fill="#FB9959" filter="url(#filter-5)" transform="translate(83.784632, 52.831019) scale(-1, 1) rotate(-180.000000) translate(-83.784632, -52.831019) " cx="83.7846322" cy="52.8310193" rx="52.6859561" ry="52.8310193"></ellipse>
                            <ellipse fill="#EBF7FD" filter="url(#filter-6)" transform="translate(92.750283, 41.398929) scale(-1, 1) rotate(-180.000000) translate(-92.750283, -41.398929) " cx="92.7502827" cy="41.398929" rx="39.7358452" ry="39.8452522"></ellipse>
                            <ellipse fill="#FBF459" filter="url(#filter-7)" transform="translate(70.945423, 65.483418) scale(-1, 1) rotate(-180.000000) translate(-70.945423, -65.483418) " cx="70.9454232" cy="65.4834176" rx="33.4267958" ry="33.5188317"></ellipse>
                            <ellipse fill="#824909" filter="url(#filter-8)" transform="translate(66.952704, 68.369432) scale(-1, 1) rotate(-180.000000) translate(-66.952704, -68.369432) " cx="66.9527035" cy="68.3694316" rx="25.6788593" ry="25.7495623"></ellipse>
                        </g>
                    </g>
                </g>
                <g id="git" transform="translate(30.000000, 30.000000)">
                    <rect id="矩形备份-8" opacity="0.400000006" x="0" y="0" width="40" height="40"></rect>
                    <path d="M20.0006054,0 C10.1919577,0 1.83087268,7.29398252 0.259979792,17.2219933 C-1.31097169,27.1497638 4.37170932,36.7806924 13.677076,39.960763 C14.6770174,40.1412352 15.0509921,39.526164 15.0509921,38.9866099 C15.0509921,38.5005847 15.026912,36.8848664 15.026912,35.1684585 C10.0015429,36.1158171 8.70162493,33.9115217 8.30151947,32.7589991 C7.85799943,31.6367555 7.1542263,30.6422363 6.25183586,29.8614719 C5.55175384,29.4779987 4.55181244,28.5284773 6.22576368,28.5038456 C7.52409974,28.6479109 8.67209598,29.4324601 9.30146087,30.6058294 C9.85372241,31.6231781 10.7783181,32.3734232 11.870889,32.6909316 C12.9635185,33.0085001 14.1343645,32.8667177 15.1251074,32.2976056 C15.2116436,31.2544838 15.6650067,30.2794296 16.4010624,29.5538162 C11.9512148,29.0409965 7.30163665,27.2734629 7.30163665,19.4298333 C7.27327949,17.3914112 8.00675734,15.4191943 9.35155462,13.9177429 C8.74005942,12.1464244 8.81165539,10.2025639 9.55134369,8.48357274 C10.2912664,6.76458154 11.2252949,7.94618147 15.0509921,10.5853163 C18.323256,9.66258935 21.7779665,9.66258935 25.050289,10.5853163 C28.873877,7.91962731 30.5498788,8.48357274 30.5498788,8.48357274 C31.2898015,10.2025639 31.3613975,12.1464244 30.7499023,13.9177429 C32.0985664,15.416611 32.8328059,17.3905101 32.7995859,19.4298333 C32.7995859,27.2980946 28.1241113,29.0409965 23.6743223,29.5538162 C24.6401648,30.5575273 25.1326654,31.9418881 25.0241582,33.3475762 C25.0241582,36.0911854 25.000371,38.2957212 25.000371,38.9866099 C25.000371,39.526164 25.3743457,40.1658669 26.3742285,39.960763 C35.6617841,36.7543785 41.3176899,27.1220681 39.7357822,17.2053519 C38.1541089,7.28833526 29.8003476,0.00540695517 20.0006054,0 Z" id="Fill-1备份-3" fill="#FFFFFF"></path>
                </g>
            </g>
        </g>
    </g>
</svg>